<?xml version="1.0" encoding="UTF-8"?>
<svg id="Layer_1" data-name="Layer 1" xmlns="http://www.w3.org/2000/svg" viewBox="0 0 950 950">
  <defs>
    <style>
      .cls-1 {
        fill: #f8ac5e;
      }

      .cls-1, .cls-2, .cls-3 {
        fill-rule: evenodd;
      }

      .cls-2 {
        fill: #88898b;
      }

      .cls-3 {
        fill: #eb5f27;
      }
    </style>
  </defs>
  <path class="cls-2" d="m852.76,779.69l26.97-75.65h30.28l26.46,75.65h-29.24l-2.43-9.51h-20.51l-2.33,9.51h-29.19Zm36.07-27.5h11.31l-2.31-8.57c-1.15-4.34-1.92-7.69-2.33-10.03-.42-2.33-.67-4.53-.77-6.6h-.46c-.1,2.06-.37,4.27-.77,6.6-.42,2.35-1.2,5.7-2.33,10.03l-2.33,8.57h0Zm-68.67,27.5v-75.65h27.68v75.65h-27.68Zm-71.28-8.47l8.68-21.18c3.9,2.72,7.35,4.71,10.41,5.96,3.05,1.25,5.91,1.88,8.55,1.88,1.87,0,3.33-.35,4.39-1.06,1.08-.71,1.61-1.66,1.61-2.87,0-2.1-2.66-3.7-8.01-4.8-1.73-.39-3.07-.67-4.04-.88-5.64-1.38-9.97-3.83-12.96-7.34-3-3.51-4.5-7.88-4.5-13.12,0-8.13,2.91-14.74,8.73-19.84,5.82-5.1,13.46-7.65,22.89-7.65,4.36,0,8.63.56,12.82,1.71,4.2,1.13,8.45,2.86,12.72,5.17l-8.27,19.79c-2.61-1.92-5.24-3.4-7.88-4.43-2.63-1.01-5.19-1.52-7.67-1.52-1.89,0-3.35.32-4.39.95-1.04.63-1.55,1.53-1.55,2.66,0,2.13,3.78,4.02,11.33,5.63,1.2.28,2.13.49,2.79.64,5.2,1.16,9.29,3.56,12.29,7.18,3,3.62,4.5,7.99,4.5,13.12,0,8.36-3.02,15.2-9.07,20.51-6.05,5.31-13.92,7.96-23.6,7.96-4.96,0-9.91-.71-14.87-2.12-4.97-1.41-9.93-3.53-14.89-6.35h0Zm-56.85,8.47v-75.65h50.59v20.51h-23.92v7.29h21.69v19.38h-21.69v7.95h24.53v20.51h-51.2Zm-90.87,0v-75.65h26.67l23.51,39.58c-.32-1.75-.53-3.7-.65-5.84-.12-2.13-.18-4.92-.18-8.38v-25.36h26.19v75.65h-26.86l-23.26-39.28c.28,1.69.48,3.51.62,5.47.14,1.94.21,4.11.21,6.53v27.28h-26.24Zm-12.19-37.66c0,5.54-.99,10.71-2.94,15.47-1.96,4.78-4.83,9.05-8.63,12.81-3.79,3.68-8.17,6.51-13.11,8.46-4.94,1.96-10.21,2.94-15.78,2.94s-10.93-.99-15.86-2.94c-4.94-1.96-9.31-4.82-13.14-8.57-3.74-3.65-6.6-7.87-8.52-12.61-1.92-4.76-2.89-9.95-2.89-15.56s.97-10.81,2.89-15.61c1.92-4.78,4.78-9.01,8.52-12.66,3.79-3.7,8.15-6.54,13.08-8.48,4.92-1.96,10.23-2.93,15.91-2.93s10.99.97,15.91,2.93c4.94,1.94,9.31,4.78,13.14,8.48,3.7,3.69,6.54,7.94,8.48,12.72,1.96,4.8,2.93,9.98,2.93,15.56h0Zm-40.46,14.27c3.83,0,6.9-1.31,9.23-3.9,2.33-2.61,3.49-6.05,3.49-10.37s-1.16-7.81-3.49-10.46c-2.33-2.63-5.4-3.95-9.23-3.95s-6.91,1.32-9.26,3.99c-2.35,2.65-3.51,6.12-3.51,10.42s1.16,7.76,3.51,10.37c2.35,2.59,5.43,3.9,9.26,3.9h0Zm-121.88,23.39v-75.65h22.01c6.98,0,12.96.39,17.9,1.16,4.94.78,8.98,1.98,12.06,3.6,6.56,3.44,11.57,8.01,15.08,13.69,3.49,5.68,5.24,12.15,5.24,19.42s-1.75,13.69-5.22,19.33c-3.48,5.65-8.5,10.21-15.1,13.69-3.19,1.66-7.27,2.87-12.19,3.63s-11.53,1.13-19.79,1.13h-20Zm26.97-23.1c6.14-.04,10.62-1.24,13.46-3.6,2.82-2.35,4.23-6.05,4.23-11.08s-1.36-8.59-4.06-11.01c-2.71-2.41-6.86-3.62-12.45-3.62h-1.18v29.3h0Zm-118.12,23.1v-75.65h26.67l23.51,39.58c-.32-1.75-.53-3.71-.65-5.84-.13-2.13-.18-4.92-.18-8.38v-25.36h26.19v75.65h-26.86l-23.26-39.28c.28,1.69.48,3.51.62,5.47.14,1.94.21,4.11.21,6.53v27.29h-26.25Zm-42.4,0v-75.65h27.64v75.65h-27.64Zm-109.54-5.36l8.68-21.18c3.9,2.72,7.35,4.71,10.41,5.96,3.05,1.25,5.91,1.89,8.55,1.89,1.87,0,3.33-.35,4.39-1.06,1.08-.7,1.61-1.66,1.61-2.87,0-2.1-2.67-3.7-8.01-4.8-1.73-.39-3.07-.67-4.04-.88-5.64-1.38-9.96-3.83-12.96-7.34-3-3.51-4.5-7.88-4.5-13.12,0-8.13,2.91-14.74,8.73-19.84,5.82-5.1,13.46-7.66,22.89-7.66,4.36,0,8.62.57,12.82,1.71,4.2,1.13,8.45,2.86,12.72,5.17l-8.27,19.79c-2.61-1.92-5.24-3.4-7.89-4.42-2.63-1.01-5.19-1.52-7.67-1.52-1.89,0-3.35.32-4.39.95-1.04.64-1.55,1.53-1.55,2.66,0,2.13,3.77,4.02,11.32,5.63,1.2.28,2.13.49,2.79.63,5.2,1.16,9.3,3.56,12.29,7.18,3,3.62,4.5,7.99,4.5,13.12,0,8.36-3.02,15.21-9.07,20.51-6.05,5.31-13.92,7.95-23.6,7.95-4.96,0-9.91-.71-14.87-2.12-4.98-1.41-9.93-3.53-14.89-6.35h0Zm-5.61-31.22c0,5.54-.99,10.71-2.94,15.47-1.96,4.78-4.83,9.05-8.63,12.81-3.79,3.68-8.17,6.51-13.1,8.46-4.94,1.96-10.21,2.94-15.79,2.94s-10.94-.99-15.85-2.94c-4.94-1.96-9.31-4.82-13.14-8.57-3.74-3.65-6.6-7.87-8.52-12.61-1.92-4.76-2.89-9.95-2.89-15.56s.97-10.81,2.89-15.61c1.92-4.78,4.78-9.01,8.52-12.66,3.79-3.7,8.15-6.54,13.09-8.48,4.92-1.96,10.23-2.93,15.91-2.93s10.99.97,15.91,2.93c4.94,1.94,9.31,4.78,13.14,8.48,3.7,3.69,6.54,7.94,8.48,12.72,1.96,4.8,2.93,9.98,2.93,15.56h0Zm-40.46,14.27c3.83,0,6.9-1.31,9.22-3.9,2.33-2.61,3.49-6.05,3.49-10.37s-1.16-7.81-3.49-10.46c-2.33-2.63-5.4-3.95-9.22-3.95s-6.91,1.32-9.26,3.99c-2.34,2.64-3.51,6.12-3.51,10.42s1.16,7.76,3.51,10.37c2.35,2.59,5.43,3.9,9.26,3.9h0Zm-85.89-31.04v12.61h4.23c2.58,0,4.57-.55,5.94-1.62,1.37-1.1,2.06-2.63,2.06-4.64s-.71-3.54-2.12-4.67c-1.41-1.11-3.37-1.68-5.89-1.68h-4.23Zm-27.34,54.63v-75.65h32.5c11.43,0,19.79,2.21,25.08,6.61,5.29,4.41,7.94,11.39,7.94,20.97,0,8.92-2.38,15.45-7.13,19.56-4.76,4.11-12.31,6.17-22.65,6.17h-8.52v22.33h-27.23Z"/>
  <path class="cls-1" d="m346.09,530.93h81.46l-22,14.98h-49.84l-8.01-12.16c-.55-.94-1.08-1.88-1.62-2.81h0Zm398.2,13.42l-90.4.45c-16.99,45.62-61.99,84.73-93.87,105.06-1.68.22-3.03.41-4.15.58-1.75.04-3.51.07-5.26.07-2.44,0-4.89-.05-7.34-.14-.86-.12-1.83-.26-2.93-.42-19.34-11.81-45.68-29.72-59.83-49.92l15.95-6.92c12.93,17.12,28.58,29.73,44.36,45.37l.3-62.17,14.69-5.67.32,69.15c31.02-25.93,60.18-61.05,79.19-94.99l-7.11-.45,33.66-14.81,91.47-.22c-3.33,6.16-5.15,9.22-9.04,15.04h0Zm-188.68-94.49l-14.82,9.31v-24.11l14.82-.03v14.83h0Zm-105,65.24c-9.32-24.97-15.59-50.14-17.09-78.9h-14.25c1.32,31.56,6.58,58.96,16.89,88.33l14.46-9.42h0Zm104.54-239.53l.23-84.28c26.43,20.6,54.12,49.86,73.79,84.27h17.88c-22.69-52.11-68.69-84.46-88.6-92.96-1.14-.16-2.44-.3-3.82-.41-1.34-.02-2.67-.04-4.01-.04-3.04-.05-6.08-.03-9.12.05-.68.07-1.34.14-1.99.23-26.03,13.18-69.71,47.5-87.45,93.98h19.29c16.34-35.72,43.28-61.23,69.54-83.15l-.23,82.32h14.51Z"/>
  <path class="cls-3" d="m303.4,440.96l13.95-1.18c5.81,53.66,24.91,91.58,55.46,130.33l-10.97,9.17c-35.77-41.73-57.25-90.47-58.44-138.32h0Zm130.33,178.27l-15.55,7.82c38.16,23.85,84.16,37.38,132.45,37.38,108.57-1.88,201.61-72.88,234.63-171.25l-18.04,5.76c-31.6,87.63-118.23,151.56-216.59,151.56-41.14,0-83.51-12.79-116.89-31.27h0ZM127.88,337.86l7.92-6.21,405.35-14.33c12.09.56,26.63,9.97,30.89,18.44l-444.16,2.1h0Zm-30.16,23.26l483.74-14.62c8.94,0,23.28,8.96,31.63,17.91l-524.3,3.27,8.93-6.55h0Zm-38.66,30.65l559.36-15.47c14.96-.61,31.7,10.8,34.35,16.95l-602.06,5.41,8.34-6.9h0Zm677.9-115.42c-42.33-55.44-112.41-94.22-186.33-94.22-74.64-1.31-149.08,37.52-189.41,94.97l-17.39.37c44.71-65.58,121.55-109.63,206.8-109.63s159.4,43.14,204.11,108.12l-17.77.38h0Zm125.56,139.42c5.07,0,8.35,4.17,8.35,9.54s-3.28,8.35-8.35,8.35-9.54-2.98-9.54-8.35,4.47-9.54,9.54-9.54h0Zm-686.28-116.91l-6.89,6.47,583.46-2.39c16.18-.07,37.76,14.82,37.92,29.59.25,23.53-16.09,54.71-35.41,75.82h90.93c26.82,0,42.38,11.65,49.39,29.76-74.68,12.12-145.53,34.37-206.44,53.13-108.77,34.38-202.39,73.98-312.6,119.44,42.99-42.74,105.82-85,153.69-112.29,45.16-25.74,94.95-55.59,129.32-72.77h-29.19c-41.18,22.17-96.17,52.79-140.78,80.22-58.42,39.94-116.51,77.43-182.09,149.57,126.39-53.65,242.43-104.25,367.62-145.39,89.42-28.61,168.02-50.04,254.47-59.58-30.2-29.04-47.35-58.32-78.78-57.01l-63.09.67c33.04-42.95,34.72-95.4-32.99-110.8l-578.53,15.54h0ZM13.85,429.38l7.15-5.96,617.08-17.23c13.11,0,22.65-2.47,30.4-.08,10.73,4.17,18.48,9.54,25.04,17.29l-679.68,5.99Z"/>
</svg>