<svg width="1080" height="1080" version="1.1" xmlns="http://www.w3.org/2000/svg" desc="Created with imagetracer.js version 1.2.6" ><path fill="rgb(222,222,222)" stroke="rgb(222,222,222)" stroke-width="1" opacity="1" d="M 123.5 10 L 132 10.5 L 123.5 11 L 123.5 10 Z " /><path fill="rgb(222,222,222)" stroke="rgb(222,222,222)" stroke-width="1" opacity="1" d="M 944.5 10 L 953 10.5 L 944.5 11 L 944.5 10 Z " /><path fill="rgb(222,222,222)" stroke="rgb(222,222,222)" stroke-width="1" opacity="1" d="M 115.5 11 L 119 11.5 L 115.5 12 L 115.5 11 Z " /><path fill="rgb(222,222,222)" stroke="rgb(222,222,222)" stroke-width="1" opacity="1" d="M 957.5 11 L 961 11.5 L 957.5 12 L 957.5 11 Z " /><path fill="rgb(222,222,222)" stroke="rgb(222,222,222)" stroke-width="1" opacity="1" d="M 109.5 12 L 112 12.5 L 109.5 13 L 109.5 12 Z " /><path fill="rgb(222,222,222)" stroke="rgb(222,222,222)" stroke-width="1" opacity="1" d="M 964.5 12 L 967 12.5 L 964.5 13 L 964.5 12 Z " /><path fill="rgb(222,222,222)" stroke="rgb(222,222,222)" stroke-width="1" opacity="1" d="M 105.5 13 L 108 13.5 L 105.5 14 L 105.5 13 Z " /><path fill="rgb(222,222,222)" stroke="rgb(222,222,222)" stroke-width="1" opacity="1" d="M 968.5 13 L 971 13.5 L 968.5 14 L 968.5 13 Z " /><path fill="rgb(222,222,222)" stroke="rgb(222,222,222)" stroke-width="1" opacity="1" d="M 74.5 25 L 73.5 27 L 74.5 25 Z " /><path fill="rgb(222,222,222)" stroke="rgb(222,222,222)" stroke-width="1" opacity="1" d="M 1001.5 25 L 1002.5 27 L 1001.5 25 Z " /><path fill="rgb(222,222,222)" stroke="rgb(222,222,222)" stroke-width="1" opacity="1" d="M 69.5 28 L 68.5 30 L 69.5 28 Z " /><path fill="rgb(222,222,222)" stroke="rgb(222,222,222)" stroke-width="1" opacity="1" d="M 1006.5 28 L 1007.5 30 L 1006.5 28 Z " /><path fill="rgb(222,222,222)" stroke="rgb(222,222,222)" stroke-width="1" opacity="1" d="M 64.5 31 L 62.5 34 L 64.5 31 Z " /><path fill="rgb(222,222,222)" stroke="rgb(222,222,222)" stroke-width="1" opacity="1" d="M 1011.5 31 L 1013.5 34 L 1011.5 31 Z " /><path fill="rgb(222,222,222)" stroke="rgb(222,222,222)" stroke-width="1" opacity="1" d="M 60.5 34 L 59.5 36 L 60.5 34 Z " /><path fill="rgb(222,222,222)" stroke="rgb(222,222,222)" stroke-width="1" opacity="1" d="M 1015.5 34 L 1016.5 36 L 1015.5 34 Z " /><path fill="rgb(222,222,222)" stroke="rgb(222,222,222)" stroke-width="1" opacity="1" d="M 56.5 37 L 53.5 41 L 56.5 37 Z " /><path fill="rgb(222,222,222)" stroke="rgb(222,222,222)" stroke-width="1" opacity="1" d="M 1019.5 37 L 1022.5 41 L 1019.5 37 Z " /><path fill="rgb(222,222,222)" stroke="rgb(222,222,222)" stroke-width="1" opacity="1" d="M 49.5 43 L 42.5 51 L 49.5 43 Z " /><path fill="rgb(222,222,222)" stroke="rgb(222,222,222)" stroke-width="1" opacity="1" d="M 1026.5 43 L 1033.5 51 L 1026.5 43 Z " /><path fill="rgb(222,222,222)" stroke="rgb(222,222,222)" stroke-width="1" opacity="1" d="M 38.5 55 L 36.5 58 L 38.5 55 Z " /><path fill="rgb(222,222,222)" stroke="rgb(222,222,222)" stroke-width="1" opacity="1" d="M 1037.5 55 L 1039.5 58 L 1037.5 55 Z " /><path fill="rgb(222,222,222)" stroke="rgb(222,222,222)" stroke-width="1" opacity="1" d="M 34.5 60 L 33.5 62 L 34.5 60 Z " /><path fill="rgb(222,222,222)" stroke="rgb(222,222,222)" stroke-width="1" opacity="1" d="M 1041.5 60 L 1042.5 62 L 1041.5 60 Z " /><path fill="rgb(222,222,222)" stroke="rgb(222,222,222)" stroke-width="1" opacity="1" d="M 25.5 74 L 24.5 76 L 25.5 74 Z " /><path fill="rgb(222,222,222)" stroke="rgb(222,222,222)" stroke-width="1" opacity="1" d="M 1050.5 74 L 1051.5 76 L 1050.5 74 Z " /><path fill="rgb(222,222,222)" stroke="rgb(222,222,222)" stroke-width="1" opacity="1" d="M 11.5 110 L 12 112.5 L 11 112.5 L 11.5 110 Z " /><path fill="rgb(222,222,222)" stroke="rgb(222,222,222)" stroke-width="1" opacity="1" d="M 1064.5 110 L 1065 112.5 L 1064 112.5 L 1064.5 110 Z " /><path fill="rgb(222,222,222)" stroke="rgb(222,222,222)" stroke-width="1" opacity="1" d="M 10.5 116 L 11 119.5 L 10 119.5 L 10.5 116 Z " /><path fill="rgb(222,222,222)" stroke="rgb(222,222,222)" stroke-width="1" opacity="1" d="M 1065.5 116 L 1066 119.5 L 1065 119.5 L 1065.5 116 Z " /><path fill="rgb(222,222,222)" stroke="rgb(222,222,222)" stroke-width="1" opacity="1" d="M 9.5 124 L 10 132.5 L 9 132.5 L 9.5 124 Z " /><path fill="rgb(222,222,222)" stroke="rgb(222,222,222)" stroke-width="1" opacity="1" d="M 1066.5 124 L 1067 132.5 L 1066 132.5 L 1066.5 124 Z " /><path fill="rgb(222,222,222)" stroke="rgb(222,222,222)" stroke-width="1" opacity="1" d="M 565.5 185 L 667 185.5 L 565.5 186 L 565.5 185 Z " /><path fill="rgb(222,222,222)" stroke="rgb(222,222,222)" stroke-width="1" opacity="1" d="M 667.5 188 L 668 191.5 L 667 191.5 L 667.5 188 Z " /><path fill="rgb(222,222,222)" stroke="rgb(222,222,222)" stroke-width="1" opacity="1" d="M 668.5 196 L 669 198.5 L 668 198.5 L 668.5 196 Z " /><path fill="rgb(222,222,222)" stroke="rgb(222,222,222)" stroke-width="1" opacity="1" d="M 669.5 201 L 670 203.5 L 669 203.5 L 669.5 201 Z " /><path fill="rgb(222,222,222)" stroke="rgb(222,222,222)" stroke-width="1" opacity="1" d="M 689.5 257 L 690.5 259 L 689.5 257 Z " /><path fill="rgb(222,222,222)" stroke="rgb(222,222,222)" stroke-width="1" opacity="1" d="M 693.5 264 L 694.5 266 L 693.5 264 Z " /><path fill="rgb(222,222,222)" stroke="rgb(222,222,222)" stroke-width="1" opacity="1" d="M 695.5 267 L 696.5 269 L 695.5 267 Z " /><path fill="rgb(222,222,222)" stroke="rgb(222,222,222)" stroke-width="1" opacity="1" d="M 697.5 270 L 698.5 272 L 697.5 270 Z " /><path fill="rgb(222,222,222)" stroke="rgb(222,222,222)" stroke-width="1" opacity="1" d="M 699.5 273 L 700.5 275 L 699.5 273 Z " /><path fill="rgb(222,222,222)" stroke="rgb(222,222,222)" stroke-width="1" opacity="1" d="M 702.5 277 L 703.5 279 L 702.5 277 Z " /><path fill="rgb(222,222,222)" stroke="rgb(222,222,222)" stroke-width="1" opacity="1" d="M 704.5 280 L 706.5 283 L 704.5 280 Z " /><path fill="rgb(222,222,222)" stroke="rgb(222,222,222)" stroke-width="1" opacity="1" d="M 708.5 285 L 711.5 289 L 708.5 285 Z " /><path fill="rgb(222,222,222)" stroke="rgb(222,222,222)" stroke-width="1" opacity="1" d="M 714.5 292 L 726.5 305 L 714.5 292 Z " /><path fill="rgb(222,222,222)" stroke="rgb(222,222,222)" stroke-width="1" opacity="1" d="M 731.5 308 L 734.5 312 L 731.5 308 Z " /><path fill="rgb(222,222,222)" stroke="rgb(222,222,222)" stroke-width="1" opacity="1" d="M 737.5 313 L 739.5 316 L 737.5 313 Z " /><path fill="rgb(222,222,222)" stroke="rgb(222,222,222)" stroke-width="1" opacity="1" d="M 741.5 316 L 743.5 319 L 741.5 316 Z " /><path fill="rgb(222,222,222)" stroke="rgb(222,222,222)" stroke-width="1" opacity="1" d="M 745.5 319 L 746.5 321 L 745.5 319 Z " /><path fill="rgb(222,222,222)" stroke="rgb(222,222,222)" stroke-width="1" opacity="1" d="M 748.5 321 L 749.5 323 L 748.5 321 Z " /><path fill="rgb(222,222,222)" stroke="rgb(222,222,222)" stroke-width="1" opacity="1" d="M 751.5 323 L 752.5 325 L 751.5 323 Z " /><path fill="rgb(222,222,222)" stroke="rgb(222,222,222)" stroke-width="1" opacity="1" d="M 754.5 325 L 755.5 327 L 754.5 325 Z " /><path fill="rgb(222,222,222)" stroke="rgb(222,222,222)" stroke-width="1" opacity="1" d="M 759.5 328 L 760.5 330 L 759.5 328 Z " /><path fill="rgb(222,222,222)" stroke="rgb(222,222,222)" stroke-width="1" opacity="1" d="M 811.5 349 L 814 349.5 L 811.5 350 L 811.5 349 Z " /><path fill="rgb(222,222,222)" stroke="rgb(222,222,222)" stroke-width="1" opacity="1" d="M 816.5 350 L 819 350.5 L 816.5 351 L 816.5 350 Z " /><path fill="rgb(222,222,222)" stroke="rgb(222,222,222)" stroke-width="1" opacity="1" d="M 821.5 351 L 824 351.5 L 821.5 352 L 821.5 351 Z " /><path fill="rgb(222,222,222)" stroke="rgb(222,222,222)" stroke-width="1" opacity="1" d="M 827.5 352 L 831 352.5 L 827.5 353 L 827.5 352 Z " /><path fill="rgb(222,222,222)" stroke="rgb(222,222,222)" stroke-width="1" opacity="1" d="M 835.5 353 Q 841.6 351.8 841 354.5 L 839.5 354 Q 834.5 355 835.5 353 Z " /><path fill="rgb(222,222,222)" stroke="rgb(222,222,222)" stroke-width="1" opacity="1" d="M 840.5 356 L 841 469.5 L 840 469.5 L 840.5 356 Z " /><path fill="rgb(222,222,222)" stroke="rgb(222,222,222)" stroke-width="1" opacity="1" d="M 564.5 380 L 565 641.5 L 564 641.5 L 564.5 380 Z " /><path fill="rgb(222,222,222)" stroke="rgb(222,222,222)" stroke-width="1" opacity="1" d="M 665.5 388 Q 668.3 389.3 666 390.5 L 665.5 686 L 665 390.5 L 665.5 388 Z " /><path fill="rgb(222,222,222)" stroke="rgb(222,222,222)" stroke-width="1" opacity="1" d="M 668.5 392 L 669.5 394 L 668.5 392 Z " /><path fill="rgb(222,222,222)" stroke="rgb(222,222,222)" stroke-width="1" opacity="1" d="M 670.5 395 L 672.5 398 L 670.5 395 Z " /><path fill="rgb(222,222,222)" stroke="rgb(222,222,222)" stroke-width="1" opacity="1" d="M 673.5 399 L 675.5 402 L 673.5 399 Z " /><path fill="rgb(222,222,222)" stroke="rgb(222,222,222)" stroke-width="1" opacity="1" d="M 677.5 404 L 680.5 408 L 677.5 404 Z " /><path fill="rgb(222,222,222)" stroke="rgb(222,222,222)" stroke-width="1" opacity="1" d="M 684.5 412 L 693.5 422 L 684.5 412 Z " /><path fill="rgb(222,222,222)" stroke="rgb(222,222,222)" stroke-width="1" opacity="1" d="M 698.5 425 L 702.5 430 L 698.5 425 Z " /><path fill="rgb(222,222,222)" stroke="rgb(222,222,222)" stroke-width="1" opacity="1" d="M 705.5 431 L 706.5 433 L 705.5 431 Z " /><path fill="rgb(222,222,222)" stroke="rgb(222,222,222)" stroke-width="1" opacity="1" d="M 709.5 434 L 711.5 437 L 709.5 434 Z " /><path fill="rgb(222,222,222)" stroke="rgb(222,222,222)" stroke-width="1" opacity="1" d="M 713.5 437 L 714.5 439 L 713.5 437 Z " /><path fill="rgb(222,222,222)" stroke="rgb(222,222,222)" stroke-width="1" opacity="1" d="M 716.5 439 L 717.5 441 L 716.5 439 Z " /><path fill="rgb(222,222,222)" stroke="rgb(222,222,222)" stroke-width="1" opacity="1" d="M 719.5 441 L 720.5 443 L 719.5 441 Z " /><path fill="rgb(222,222,222)" stroke="rgb(222,222,222)" stroke-width="1" opacity="1" d="M 722.5 443 L 723.5 445 L 722.5 443 Z " /><path fill="rgb(222,222,222)" stroke="rgb(222,222,222)" stroke-width="1" opacity="1" d="M 727.5 446 L 728.5 448 L 727.5 446 Z " /><path fill="rgb(222,222,222)" stroke="rgb(222,222,222)" stroke-width="1" opacity="1" d="M 738.5 452 L 741 453.5 L 739.5 454 L 738.5 452 Z " /><path fill="rgb(222,222,222)" stroke="rgb(222,222,222)" stroke-width="1" opacity="1" d="M 444.5 462 L 454 462.5 L 444.5 463 L 444.5 462 Z " /><path fill="rgb(222,222,222)" stroke="rgb(222,222,222)" stroke-width="1" opacity="1" d="M 429.5 463 L 435 463.5 L 429.5 464 L 429.5 463 Z " /><path fill="rgb(222,222,222)" stroke="rgb(222,222,222)" stroke-width="1" opacity="1" d="M 461.5 463 L 464 463.5 L 461.5 464 L 461.5 463 Z " /><path fill="rgb(222,222,222)" stroke="rgb(222,222,222)" stroke-width="1" opacity="1" d="M 420.5 464 L 425 464.5 L 420.5 465 L 420.5 464 Z " /><path fill="rgb(222,222,222)" stroke="rgb(222,222,222)" stroke-width="1" opacity="1" d="M 414.5 465 L 417 465.5 L 414.5 466 L 414.5 465 Z " /><path fill="rgb(222,222,222)" stroke="rgb(222,222,222)" stroke-width="1" opacity="1" d="M 408.5 466 L 411 466.5 L 408.5 467 L 408.5 466 Z " /><path fill="rgb(222,222,222)" stroke="rgb(222,222,222)" stroke-width="1" opacity="1" d="M 399.5 468 L 402 468.5 L 399.5 469 L 399.5 468 Z " /><path fill="rgb(222,222,222)" stroke="rgb(222,222,222)" stroke-width="1" opacity="1" d="M 782.5 468 L 785 468.5 L 782.5 469 L 782.5 468 Z " /><path fill="rgb(222,222,222)" stroke="rgb(222,222,222)" stroke-width="1" opacity="1" d="M 395.5 469 L 398 469.5 L 395.5 470 L 395.5 469 Z " /><path fill="rgb(222,222,222)" stroke="rgb(222,222,222)" stroke-width="1" opacity="1" d="M 787.5 469 L 790 469.5 L 787.5 470 L 787.5 469 Z " /><path fill="rgb(222,222,222)" stroke="rgb(222,222,222)" stroke-width="1" opacity="1" d="M 793.5 470 L 796 470.5 L 793.5 471 L 793.5 470 Z " /><path fill="rgb(222,222,222)" stroke="rgb(222,222,222)" stroke-width="1" opacity="1" d="M 799.5 471 L 804 471.5 L 799.5 472 L 799.5 471 Z " /><path fill="rgb(222,222,222)" stroke="rgb(222,222,222)" stroke-width="1" opacity="1" d="M 809.5 472 L 836 472.5 L 809.5 473 L 809.5 472 Z " /><path fill="rgb(222,222,222)" stroke="rgb(222,222,222)" stroke-width="1" opacity="1" d="M 349.5 487 L 348.5 489 L 349.5 487 Z " /><path fill="rgb(222,222,222)" stroke="rgb(222,222,222)" stroke-width="1" opacity="1" d="M 342.5 491 L 341.5 493 L 342.5 491 Z " /><path fill="rgb(222,222,222)" stroke="rgb(222,222,222)" stroke-width="1" opacity="1" d="M 337.5 494 L 336.5 496 L 337.5 494 Z " /><path fill="rgb(222,222,222)" stroke="rgb(222,222,222)" stroke-width="1" opacity="1" d="M 328.5 500 L 327.5 502 L 328.5 500 Z " /><path fill="rgb(222,222,222)" stroke="rgb(222,222,222)" stroke-width="1" opacity="1" d="M 325.5 502 L 324.5 504 L 325.5 502 Z " /><path fill="rgb(222,222,222)" stroke="rgb(222,222,222)" stroke-width="1" opacity="1" d="M 321.5 505 L 320.5 507 L 321.5 505 Z " /><path fill="rgb(222,222,222)" stroke="rgb(222,222,222)" stroke-width="1" opacity="1" d="M 317.5 508 L 315.5 511 L 317.5 508 Z " /><path fill="rgb(222,222,222)" stroke="rgb(222,222,222)" stroke-width="1" opacity="1" d="M 312.5 512 L 309.5 516 L 312.5 512 Z " /><path fill="rgb(222,222,222)" stroke="rgb(222,222,222)" stroke-width="1" opacity="1" d="M 304.5 519 L 292.5 532 L 304.5 519 Z " /><path fill="rgb(222,222,222)" stroke="rgb(222,222,222)" stroke-width="1" opacity="1" d="M 288.5 536 L 285.5 540 L 288.5 536 Z " /><path fill="rgb(222,222,222)" stroke="rgb(222,222,222)" stroke-width="1" opacity="1" d="M 282.5 543 L 281.5 545 L 282.5 543 Z " /><path fill="rgb(222,222,222)" stroke="rgb(222,222,222)" stroke-width="1" opacity="1" d="M 279.5 547 L 277.5 550 L 279.5 547 Z " /><path fill="rgb(222,222,222)" stroke="rgb(222,222,222)" stroke-width="1" opacity="1" d="M 276.5 551 L 275.5 553 L 276.5 551 Z " /><path fill="rgb(222,222,222)" stroke="rgb(222,222,222)" stroke-width="1" opacity="1" d="M 273.5 555 L 272.5 557 L 273.5 555 Z " /><path fill="rgb(222,222,222)" stroke="rgb(222,222,222)" stroke-width="1" opacity="1" d="M 271.5 558 L 270.5 560 L 271.5 558 Z " /><path fill="rgb(222,222,222)" stroke="rgb(222,222,222)" stroke-width="1" opacity="1" d="M 266.5 566 L 265.5 568 L 266.5 566 Z " /><path fill="rgb(222,222,222)" stroke="rgb(222,222,222)" stroke-width="1" opacity="1" d="M 440.5 568 L 457 568.5 L 440.5 569 L 440.5 568 Z " /><path fill="rgb(222,222,222)" stroke="rgb(222,222,222)" stroke-width="1" opacity="1" d="M 433.5 569 L 436 569.5 L 433.5 570 L 433.5 569 Z " /><path fill="rgb(222,222,222)" stroke="rgb(222,222,222)" stroke-width="1" opacity="1" d="M 460.5 569 L 464 569.5 L 460.5 570 L 460.5 569 Z " /><path fill="rgb(222,222,222)" stroke="rgb(222,222,222)" stroke-width="1" opacity="1" d="M 427.5 570 L 430 570.5 L 427.5 571 L 427.5 570 Z " /><path fill="rgb(222,222,222)" stroke="rgb(222,222,222)" stroke-width="1" opacity="1" d="M 262.5 573 L 261.5 575 L 262.5 573 Z " /><path fill="rgb(222,222,222)" stroke="rgb(222,222,222)" stroke-width="1" opacity="1" d="M 394.5 583 L 393.5 585 L 394.5 583 Z " /><path fill="rgb(222,222,222)" stroke="rgb(222,222,222)" stroke-width="1" opacity="1" d="M 389.5 586 L 388.5 588 L 389.5 586 Z " /><path fill="rgb(222,222,222)" stroke="rgb(222,222,222)" stroke-width="1" opacity="1" d="M 385.5 589 L 384.5 591 L 385.5 589 Z " /><path fill="rgb(222,222,222)" stroke="rgb(222,222,222)" stroke-width="1" opacity="1" d="M 381.5 592 L 379.5 595 L 381.5 592 Z " /><path fill="rgb(222,222,222)" stroke="rgb(222,222,222)" stroke-width="1" opacity="1" d="M 367.5 606 L 365.5 609 L 367.5 606 Z " /><path fill="rgb(222,222,222)" stroke="rgb(222,222,222)" stroke-width="1" opacity="1" d="M 363.5 611 L 361.5 614 L 363.5 611 Z " /><path fill="rgb(222,222,222)" stroke="rgb(222,222,222)" stroke-width="1" opacity="1" d="M 360.5 615 L 359.5 617 L 360.5 615 Z " /><path fill="rgb(222,222,222)" stroke="rgb(222,222,222)" stroke-width="1" opacity="1" d="M 358.5 618 L 357.5 620 L 358.5 618 Z " /><path fill="rgb(222,222,222)" stroke="rgb(222,222,222)" stroke-width="1" opacity="1" d="M 355.5 623 L 354.5 625 L 355.5 623 Z " /><path fill="rgb(222,222,222)" stroke="rgb(222,222,222)" stroke-width="1" opacity="1" d="M 240.5 629 L 241 631.5 L 240 631.5 L 240.5 629 Z " /><path fill="rgb(222,222,222)" stroke="rgb(222,222,222)" stroke-width="1" opacity="1" d="M 239.5 634 L 240 636.5 L 239 636.5 L 239.5 634 Z " /><path fill="rgb(222,222,222)" stroke="rgb(222,222,222)" stroke-width="1" opacity="1" d="M 238.5 639 L 239 641.5 L 238 641.5 L 238.5 639 Z " /><path fill="rgb(222,222,222)" stroke="rgb(222,222,222)" stroke-width="1" opacity="1" d="M 237.5 645 L 238 648.5 L 237 648.5 L 237.5 645 Z " /><path fill="rgb(222,222,222)" stroke="rgb(222,222,222)" stroke-width="1" opacity="1" d="M 236.5 652 L 237 657.5 L 236 657.5 L 236.5 652 Z " /><path fill="rgb(222,222,222)" stroke="rgb(222,222,222)" stroke-width="1" opacity="1" d="M 342.5 658 L 343 660.5 L 342 660.5 L 342.5 658 Z " /><path fill="rgb(222,222,222)" stroke="rgb(222,222,222)" stroke-width="1" opacity="1" d="M 235.5 663 L 236 691.5 L 235 691.5 L 235.5 663 Z " /><path fill="rgb(222,222,222)" stroke="rgb(222,222,222)" stroke-width="1" opacity="1" d="M 341.5 664 L 342 669.5 L 341 669.5 L 341.5 664 Z " /><path fill="rgb(222,222,222)" stroke="rgb(222,222,222)" stroke-width="1" opacity="1" d="M 341.5 686 L 342 690.5 L 341 690.5 L 341.5 686 Z " /><path fill="rgb(222,222,222)" stroke="rgb(222,222,222)" stroke-width="1" opacity="1" d="M 563.5 688 L 564 692.5 L 563 692.5 L 563.5 688 Z " /><path fill="rgb(222,222,222)" stroke="rgb(222,222,222)" stroke-width="1" opacity="1" d="M 664.5 694 L 665 699.5 L 664 699.5 L 664.5 694 Z " /><path fill="rgb(222,222,222)" stroke="rgb(222,222,222)" stroke-width="1" opacity="1" d="M 342.5 695 L 343 697.5 L 342 697.5 L 342.5 695 Z " /><path fill="rgb(222,222,222)" stroke="rgb(222,222,222)" stroke-width="1" opacity="1" d="M 562.5 696 L 563 698.5 L 562 698.5 L 562.5 696 Z " /><path fill="rgb(222,222,222)" stroke="rgb(222,222,222)" stroke-width="1" opacity="1" d="M 236.5 698 L 237 702.5 L 236 702.5 L 236.5 698 Z " /><path fill="rgb(222,222,222)" stroke="rgb(222,222,222)" stroke-width="1" opacity="1" d="M 343.5 700 L 344 702.5 L 343 702.5 L 343.5 700 Z " /><path fill="rgb(222,222,222)" stroke="rgb(222,222,222)" stroke-width="1" opacity="1" d="M 344.5 704 L 345 706.5 L 344 706.5 L 344.5 704 Z " /><path fill="rgb(222,222,222)" stroke="rgb(222,222,222)" stroke-width="1" opacity="1" d="M 663.5 704 L 664 707.5 L 663 707.5 L 663.5 704 Z " /><path fill="rgb(222,222,222)" stroke="rgb(222,222,222)" stroke-width="1" opacity="1" d="M 237.5 707 L 238 709.5 L 237 709.5 L 237.5 707 Z " /><path fill="rgb(222,222,222)" stroke="rgb(222,222,222)" stroke-width="1" opacity="1" d="M 662.5 711 L 663 714.5 L 662 714.5 L 662.5 711 Z " /><path fill="rgb(222,222,222)" stroke="rgb(222,222,222)" stroke-width="1" opacity="1" d="M 238.5 713 L 239 715.5 L 238 715.5 L 238.5 713 Z " /><path fill="rgb(222,222,222)" stroke="rgb(222,222,222)" stroke-width="1" opacity="1" d="M 661.5 717 L 662 719.5 L 661 719.5 L 661.5 717 Z " /><path fill="rgb(222,222,222)" stroke="rgb(222,222,222)" stroke-width="1" opacity="1" d="M 239.5 719 L 240 721.5 L 239 721.5 L 239.5 719 Z " /><path fill="rgb(222,222,222)" stroke="rgb(222,222,222)" stroke-width="1" opacity="1" d="M 660.5 722 L 661 724.5 L 660 724.5 L 660.5 722 Z " /><path fill="rgb(222,222,222)" stroke="rgb(222,222,222)" stroke-width="1" opacity="1" d="M 548.5 733 L 547.5 735 L 548.5 733 Z " /><path fill="rgb(222,222,222)" stroke="rgb(222,222,222)" stroke-width="1" opacity="1" d="M 356.5 734 L 357.5 736 L 356.5 734 Z " /><path fill="rgb(222,222,222)" stroke="rgb(222,222,222)" stroke-width="1" opacity="1" d="M 358.5 737 L 359.5 739 L 358.5 737 Z " /><path fill="rgb(222,222,222)" stroke="rgb(222,222,222)" stroke-width="1" opacity="1" d="M 544.5 739 L 543.5 741 L 544.5 739 Z " /><path fill="rgb(222,222,222)" stroke="rgb(222,222,222)" stroke-width="1" opacity="1" d="M 360.5 740 L 361.5 742 L 360.5 740 Z " /><path fill="rgb(222,222,222)" stroke="rgb(222,222,222)" stroke-width="1" opacity="1" d="M 541.5 743 L 539.5 746 L 541.5 743 Z " /><path fill="rgb(222,222,222)" stroke="rgb(222,222,222)" stroke-width="1" opacity="1" d="M 363.5 744 L 364.5 746 L 363.5 744 Z " /><path fill="rgb(222,222,222)" stroke="rgb(222,222,222)" stroke-width="1" opacity="1" d="M 367.5 749 L 378.5 761 L 367.5 749 Z " /><path fill="rgb(222,222,222)" stroke="rgb(222,222,222)" stroke-width="1" opacity="1" d="M 536.5 749 L 529.5 757 L 536.5 749 Z " /><path fill="rgb(222,222,222)" stroke="rgb(222,222,222)" stroke-width="1" opacity="1" d="M 525.5 759 L 523.5 762 L 525.5 759 Z " /><path fill="rgb(222,222,222)" stroke="rgb(222,222,222)" stroke-width="1" opacity="1" d="M 382.5 763 L 383.5 765 L 382.5 763 Z " /><path fill="rgb(222,222,222)" stroke="rgb(222,222,222)" stroke-width="1" opacity="1" d="M 520.5 763 L 519.5 765 L 520.5 763 Z " /><path fill="rgb(222,222,222)" stroke="rgb(222,222,222)" stroke-width="1" opacity="1" d="M 386.5 766 L 387.5 768 L 386.5 766 Z " /><path fill="rgb(222,222,222)" stroke="rgb(222,222,222)" stroke-width="1" opacity="1" d="M 516.5 766 L 515.5 768 L 516.5 766 Z " /><path fill="rgb(222,222,222)" stroke="rgb(222,222,222)" stroke-width="1" opacity="1" d="M 389.5 768 L 390.5 770 L 389.5 768 Z " /><path fill="rgb(222,222,222)" stroke="rgb(222,222,222)" stroke-width="1" opacity="1" d="M 511.5 769 L 510.5 771 L 511.5 769 Z " /><path fill="rgb(222,222,222)" stroke="rgb(222,222,222)" stroke-width="1" opacity="1" d="M 392.5 770 L 393.5 772 L 392.5 770 Z " /><path fill="rgb(222,222,222)" stroke="rgb(222,222,222)" stroke-width="1" opacity="1" d="M 506.5 772 L 505.5 774 L 506.5 772 Z " /><path fill="rgb(222,222,222)" stroke="rgb(222,222,222)" stroke-width="1" opacity="1" d="M 500.5 775 L 502 775.5 L 498.5 777 L 498.5 776 L 500.5 775 Z " /><path fill="rgb(222,222,222)" stroke="rgb(222,222,222)" stroke-width="1" opacity="1" d="M 640.5 778 L 639.5 780 L 640.5 778 Z " /><path fill="rgb(222,222,222)" stroke="rgb(222,222,222)" stroke-width="1" opacity="1" d="M 263.5 784 L 264.5 786 L 263.5 784 Z " /><path fill="rgb(222,222,222)" stroke="rgb(222,222,222)" stroke-width="1" opacity="1" d="M 425.5 784 L 428 784.5 L 425.5 785 L 425.5 784 Z " /><path fill="rgb(222,222,222)" stroke="rgb(222,222,222)" stroke-width="1" opacity="1" d="M 430.5 785 L 433 785.5 L 430.5 786 L 430.5 785 Z " /><path fill="rgb(222,222,222)" stroke="rgb(222,222,222)" stroke-width="1" opacity="1" d="M 468.5 785 L 471 785.5 L 468.5 786 L 468.5 785 Z " /><path fill="rgb(222,222,222)" stroke="rgb(222,222,222)" stroke-width="1" opacity="1" d="M 436.5 786 L 442 786.5 L 436.5 787 L 436.5 786 Z " /><path fill="rgb(222,222,222)" stroke="rgb(222,222,222)" stroke-width="1" opacity="1" d="M 459.5 786 L 465 786.5 L 459.5 787 L 459.5 786 Z " /><path fill="rgb(222,222,222)" stroke="rgb(222,222,222)" stroke-width="1" opacity="1" d="M 266.5 789 L 267.5 791 L 266.5 789 Z " /><path fill="rgb(222,222,222)" stroke="rgb(222,222,222)" stroke-width="1" opacity="1" d="M 625.5 802 L 624.5 804 L 625.5 802 Z " /><path fill="rgb(222,222,222)" stroke="rgb(222,222,222)" stroke-width="1" opacity="1" d="M 276.5 804 L 277.5 806 L 276.5 804 Z " /><path fill="rgb(222,222,222)" stroke="rgb(222,222,222)" stroke-width="1" opacity="1" d="M 623.5 805 L 621.5 808 L 623.5 805 Z " /><path fill="rgb(222,222,222)" stroke="rgb(222,222,222)" stroke-width="1" opacity="1" d="M 279.5 808 L 281.5 811 L 279.5 808 Z " /><path fill="rgb(222,222,222)" stroke="rgb(222,222,222)" stroke-width="1" opacity="1" d="M 620.5 809 L 618.5 812 L 620.5 809 Z " /><path fill="rgb(222,222,222)" stroke="rgb(222,222,222)" stroke-width="1" opacity="1" d="M 283.5 813 L 285.5 816 L 283.5 813 Z " /><path fill="rgb(222,222,222)" stroke="rgb(222,222,222)" stroke-width="1" opacity="1" d="M 616.5 814 L 613.5 818 L 616.5 814 Z " /><path fill="rgb(222,222,222)" stroke="rgb(222,222,222)" stroke-width="1" opacity="1" d="M 288.5 819 L 293.5 825 L 288.5 819 Z " /><path fill="rgb(222,222,222)" stroke="rgb(222,222,222)" stroke-width="1" opacity="1" d="M 609.5 822 L 594.5 838 L 609.5 822 Z " /><path fill="rgb(222,222,222)" stroke="rgb(222,222,222)" stroke-width="1" opacity="1" d="M 303.5 834 L 308.5 840 L 303.5 834 Z " /><path fill="rgb(222,222,222)" stroke="rgb(222,222,222)" stroke-width="1" opacity="1" d="M 590.5 840 L 587.5 844 L 590.5 840 Z " /><path fill="rgb(222,222,222)" stroke="rgb(222,222,222)" stroke-width="1" opacity="1" d="M 312.5 842 L 314.5 845 L 312.5 842 Z " /><path fill="rgb(222,222,222)" stroke="rgb(222,222,222)" stroke-width="1" opacity="1" d="M 584.5 845 L 582.5 848 L 584.5 845 Z " /><path fill="rgb(222,222,222)" stroke="rgb(222,222,222)" stroke-width="1" opacity="1" d="M 317.5 846 L 319.5 849 L 317.5 846 Z " /><path fill="rgb(222,222,222)" stroke="rgb(222,222,222)" stroke-width="1" opacity="1" d="M 579.5 849 L 578.5 851 L 579.5 849 Z " /><path fill="rgb(222,222,222)" stroke="rgb(222,222,222)" stroke-width="1" opacity="1" d="M 322.5 850 L 323.5 852 L 322.5 850 Z " /><path fill="rgb(222,222,222)" stroke="rgb(222,222,222)" stroke-width="1" opacity="1" d="M 325.5 852 L 327.5 855 L 325.5 852 Z " /><path fill="rgb(222,222,222)" stroke="rgb(222,222,222)" stroke-width="1" opacity="1" d="M 575.5 852 L 574.5 854 L 575.5 852 Z " /><path fill="rgb(222,222,222)" stroke="rgb(222,222,222)" stroke-width="1" opacity="1" d="M 572.5 854 L 571.5 856 L 572.5 854 Z " /><path fill="rgb(222,222,222)" stroke="rgb(222,222,222)" stroke-width="1" opacity="1" d="M 329.5 855 L 330.5 857 L 329.5 855 Z " /><path fill="rgb(222,222,222)" stroke="rgb(222,222,222)" stroke-width="1" opacity="1" d="M 569.5 856 L 568.5 858 L 569.5 856 Z " /><path fill="rgb(222,222,222)" stroke="rgb(222,222,222)" stroke-width="1" opacity="1" d="M 332.5 857 L 333.5 859 L 332.5 857 Z " /><path fill="rgb(222,222,222)" stroke="rgb(222,222,222)" stroke-width="1" opacity="1" d="M 566.5 858 L 565.5 860 L 566.5 858 Z " /><path fill="rgb(222,222,222)" stroke="rgb(222,222,222)" stroke-width="1" opacity="1" d="M 337.5 860 L 338.5 862 L 337.5 860 Z " /><path fill="rgb(222,222,222)" stroke="rgb(222,222,222)" stroke-width="1" opacity="1" d="M 561.5 861 L 560.5 863 L 561.5 861 Z " /><path fill="rgb(222,222,222)" stroke="rgb(222,222,222)" stroke-width="1" opacity="1" d="M 340.5 862 L 341.5 864 L 340.5 862 Z " /><path fill="rgb(222,222,222)" stroke="rgb(222,222,222)" stroke-width="1" opacity="1" d="M 556.5 864 L 555.5 866 L 556.5 864 Z " /><path fill="rgb(222,222,222)" stroke="rgb(222,222,222)" stroke-width="1" opacity="1" d="M 355.5 870 L 358 871.5 L 356.5 872 L 355.5 870 Z " /><path fill="rgb(222,222,222)" stroke="rgb(222,222,222)" stroke-width="1" opacity="1" d="M 496.5 887 L 499 887.5 L 496.5 888 L 496.5 887 Z " /><path fill="rgb(222,222,222)" stroke="rgb(222,222,222)" stroke-width="1" opacity="1" d="M 406.5 888 L 409 888.5 L 406.5 889 L 406.5 888 Z " /><path fill="rgb(222,222,222)" stroke="rgb(222,222,222)" stroke-width="1" opacity="1" d="M 411.5 889 L 414 889.5 L 411.5 890 L 411.5 889 Z " /><path fill="rgb(222,222,222)" stroke="rgb(222,222,222)" stroke-width="1" opacity="1" d="M 486.5 889 L 489 889.5 L 486.5 890 L 486.5 889 Z " /><path fill="rgb(222,222,222)" stroke="rgb(222,222,222)" stroke-width="1" opacity="1" d="M 417.5 890 L 421 890.5 L 417.5 891 L 417.5 890 Z " /><path fill="rgb(222,222,222)" stroke="rgb(222,222,222)" stroke-width="1" opacity="1" d="M 480.5 890 L 484 890.5 L 480.5 891 L 480.5 890 Z " /><path fill="rgb(222,222,222)" stroke="rgb(222,222,222)" stroke-width="1" opacity="1" d="M 424.5 891 L 429 891.5 L 424.5 892 L 424.5 891 Z " /><path fill="rgb(222,222,222)" stroke="rgb(222,222,222)" stroke-width="1" opacity="1" d="M 471.5 891 L 476 891.5 L 471.5 892 L 471.5 891 Z " /><path fill="rgb(222,222,222)" stroke="rgb(222,222,222)" stroke-width="1" opacity="1" d="M 435.5 892 L 466 892.5 L 435.5 893 L 435.5 892 Z " /><path fill="rgb(222,222,222)" stroke="rgb(222,222,222)" stroke-width="1" opacity="1" d="M 9.5 945 L 10 953.5 L 9 953.5 L 9.5 945 Z " /><path fill="rgb(222,222,222)" stroke="rgb(222,222,222)" stroke-width="1" opacity="1" d="M 1066.5 945 L 1067 953.5 L 1066 953.5 L 1066.5 945 Z " /><path fill="rgb(222,222,222)" stroke="rgb(222,222,222)" stroke-width="1" opacity="1" d="M 10.5 958 L 11 961.5 L 10 961.5 L 10.5 958 Z " /><path fill="rgb(222,222,222)" stroke="rgb(222,222,222)" stroke-width="1" opacity="1" d="M 1065.5 958 L 1066 961.5 L 1065 961.5 L 1065.5 958 Z " /><path fill="rgb(222,222,222)" stroke="rgb(222,222,222)" stroke-width="1" opacity="1" d="M 11.5 965 L 12 967.5 L 11 967.5 L 11.5 965 Z " /><path fill="rgb(222,222,222)" stroke="rgb(222,222,222)" stroke-width="1" opacity="1" d="M 1064.5 965 L 1065 967.5 L 1064 967.5 L 1064.5 965 Z " /><path fill="rgb(222,222,222)" stroke="rgb(222,222,222)" stroke-width="1" opacity="1" d="M 24.5 1002 L 25.5 1004 L 24.5 1002 Z " /><path fill="rgb(222,222,222)" stroke="rgb(222,222,222)" stroke-width="1" opacity="1" d="M 1051.5 1002 L 1050.5 1004 L 1051.5 1002 Z " /><path fill="rgb(222,222,222)" stroke="rgb(222,222,222)" stroke-width="1" opacity="1" d="M 33.5 1016 L 34.5 1018 L 33.5 1016 Z " /><path fill="rgb(222,222,222)" stroke="rgb(222,222,222)" stroke-width="1" opacity="1" d="M 1042.5 1016 L 1041.5 1018 L 1042.5 1016 Z " /><path fill="rgb(222,222,222)" stroke="rgb(222,222,222)" stroke-width="1" opacity="1" d="M 36.5 1020 L 38.5 1023 L 36.5 1020 Z " /><path fill="rgb(222,222,222)" stroke="rgb(222,222,222)" stroke-width="1" opacity="1" d="M 1039.5 1020 L 1037.5 1023 L 1039.5 1020 Z " /><path fill="rgb(222,222,222)" stroke="rgb(222,222,222)" stroke-width="1" opacity="1" d="M 42.5 1027 L 49.5 1035 L 42.5 1027 Z " /><path fill="rgb(222,222,222)" stroke="rgb(222,222,222)" stroke-width="1" opacity="1" d="M 1033.5 1027 L 1026.5 1035 L 1033.5 1027 Z " /><path fill="rgb(222,222,222)" stroke="rgb(222,222,222)" stroke-width="1" opacity="1" d="M 53.5 1037 L 56.5 1041 L 53.5 1037 Z " /><path fill="rgb(222,222,222)" stroke="rgb(222,222,222)" stroke-width="1" opacity="1" d="M 1022.5 1037 L 1019.5 1041 L 1022.5 1037 Z " /><path fill="rgb(222,222,222)" stroke="rgb(222,222,222)" stroke-width="1" opacity="1" d="M 59.5 1042 L 60.5 1044 L 59.5 1042 Z " /><path fill="rgb(222,222,222)" stroke="rgb(222,222,222)" stroke-width="1" opacity="1" d="M 1016.5 1042 L 1015.5 1044 L 1016.5 1042 Z " /><path fill="rgb(222,222,222)" stroke="rgb(222,222,222)" stroke-width="1" opacity="1" d="M 62.5 1044 L 64.5 1047 L 62.5 1044 Z " /><path fill="rgb(222,222,222)" stroke="rgb(222,222,222)" stroke-width="1" opacity="1" d="M 1013.5 1044 L 1011.5 1047 L 1013.5 1044 Z " /><path fill="rgb(222,222,222)" stroke="rgb(222,222,222)" stroke-width="1" opacity="1" d="M 68.5 1048 L 69.5 1050 L 68.5 1048 Z " /><path fill="rgb(222,222,222)" stroke="rgb(222,222,222)" stroke-width="1" opacity="1" d="M 1007.5 1048 L 1006.5 1050 L 1007.5 1048 Z " /><path fill="rgb(222,222,222)" stroke="rgb(222,222,222)" stroke-width="1" opacity="1" d="M 73.5 1051 L 74.5 1053 L 73.5 1051 Z " /><path fill="rgb(222,222,222)" stroke="rgb(222,222,222)" stroke-width="1" opacity="1" d="M 1002.5 1051 L 1001.5 1053 L 1002.5 1051 Z " /><path fill="rgb(222,222,222)" stroke="rgb(222,222,222)" stroke-width="1" opacity="1" d="M 105.5 1064 L 108 1064.5 L 105.5 1065 L 105.5 1064 Z " /><path fill="rgb(222,222,222)" stroke="rgb(222,222,222)" stroke-width="1" opacity="1" d="M 968.5 1064 L 971 1064.5 L 968.5 1065 L 968.5 1064 Z " /><path fill="rgb(222,222,222)" stroke="rgb(222,222,222)" stroke-width="1" opacity="1" d="M 109.5 1065 L 112 1065.5 L 109.5 1066 L 109.5 1065 Z " /><path fill="rgb(222,222,222)" stroke="rgb(222,222,222)" stroke-width="1" opacity="1" d="M 964.5 1065 L 967 1065.5 L 964.5 1066 L 964.5 1065 Z " /><path fill="rgb(222,222,222)" stroke="rgb(222,222,222)" stroke-width="1" opacity="1" d="M 115.5 1066 L 119 1066.5 L 115.5 1067 L 115.5 1066 Z " /><path fill="rgb(222,222,222)" stroke="rgb(222,222,222)" stroke-width="1" opacity="1" d="M 957.5 1066 L 961 1066.5 L 957.5 1067 L 957.5 1066 Z " /><path fill="rgb(222,222,222)" stroke="rgb(222,222,222)" stroke-width="1" opacity="1" d="M 123.5 1067 L 132 1067.5 L 123.5 1068 L 123.5 1067 Z " /><path fill="rgb(222,222,222)" stroke="rgb(222,222,222)" stroke-width="1" opacity="1" d="M 944.5 1067 L 953 1067.5 L 944.5 1068 L 944.5 1067 Z " /><path fill="rgb(255,255,255)" stroke="rgb(255,255,255)" stroke-width="1" opacity="1" d="M 132.5 10 L 943.5 10 L 944.5 11 L 956.5 11 L 972.5 14 L 992.5 21 Q 1019.1 33.4 1037 54.5 Q 1051.6 71.4 1060 94.5 L 1065 113.5 L 1066 132.5 L 1067 133.5 L 1067 944.5 L 1066 945.5 L 1066 957.5 L 1065 958.5 L 1064 969.5 L 1056 993.5 Q 1044 1019.5 1023.5 1037 Q 1008.2 1050.7 987.5 1059 L 963.5 1066 L 944.5 1067 L 943.5 1068 L 132.5 1068 L 131.5 1067 L 119.5 1067 L 103.5 1064 L 83.5 1057 Q 56.9 1044.6 39 1023.5 Q 24.4 1006.6 16 983.5 L 11 964.5 L 10 945.5 L 9 944.5 L 9 133.5 L 10 132.5 L 10 120.5 L 11 119.5 L 12 108.5 L 20 84.5 Q 32 58.5 52.5 41 Q 67.8 27.3 88.5 19 L 112.5 12 L 131.5 11 L 132.5 10 Z M 565 185 L 565 380 L 564 381 L 564 688 L 560 709 L 556 720 Q 549 735 539 747 Q 525 763 505 774 L 482 783 L 459 787 L 434 786 L 417 782 Q 396 775 382 763 Q 366 751 356 734 L 346 712 L 341 686 L 342 662 L 348 639 Q 356 620 368 606 Q 392 577 437 569 L 460 569 L 461 570 L 464 570 L 464 463 L 455 463 L 454 462 L 430 463 L 429 464 L 421 464 L 414 466 L 409 466 L 377 475 Q 335 491 305 519 Q 273 548 254 589 L 242 622 L 237 646 L 236 663 L 235 664 L 235 692 L 236 693 L 237 710 L 243 738 L 248 753 Q 263 791 288 820 Q 316 852 357 872 L 391 885 L 412 890 L 424 891 L 425 892 L 435 892 L 436 893 L 466 893 L 467 892 L 484 891 L 511 885 L 526 880 Q 565 864 595 838 Q 623 813 641 779 Q 656 751 663 715 L 664 701 L 665 700 L 665 687 L 666 686 L 666 391 L 666 389 L 684 413 Q 707 438 740 454 L 771 466 L 788 470 L 799 471 L 800 472 L 809 472 L 810 473 L 836 473 L 837 472 Q 841 472 841 472 L 841 353 L 832 353 L 810 349 L 785 341 Q 754 328 731 308 Q 706 286 689 257 L 675 225 L 670 206 L 668 196 L 668 189 L 667 188 L 667 185 L 565 185 Z " /><path fill="rgb(0,0,0)" stroke="rgb(0,0,0)" stroke-width="1" opacity="0.00784313725490196" d="M 0 0 L 1080 0 L 1080 1080 L 0 1080 L 0 0 Z M 122 5 L 101 9 L 84 15 Q 64 24 49 37 Q 32 51 21 71 Q 13 84 8 102 L 4 123 L 4 956 L 8 977 L 14 994 Q 23 1014 37 1030 Q 51 1045 70 1056 Q 83 1064 101 1069 L 122 1073 L 955 1073 L 976 1069 L 993 1063 Q 1012 1054 1028 1041 Q 1044 1027 1055 1008 Q 1063 994 1068 977 L 1072 956 L 1072 123 L 1068 102 L 1062 85 Q 1053 64 1039 49 Q 1025 33 1007 22 Q 993 14 976 9 L 955 5 L 122 5 Z " /><path fill="rgb(0,0,0)" stroke="rgb(0,0,0)" stroke-width="1" opacity="0.996078431372549" d="M 121.5 5 L 131 5.5 L 121.5 6 L 121.5 5 Z " /><path fill="rgb(0,0,0)" stroke="rgb(0,0,0)" stroke-width="1" opacity="0.996078431372549" d="M 945.5 5 L 955 5.5 L 945.5 6 L 945.5 5 Z " /><path fill="rgb(0,0,0)" stroke="rgb(0,0,0)" stroke-width="1" opacity="0.996078431372549" d="M 114.5 6 L 118 6.5 L 114.5 7 L 114.5 6 Z " /><path fill="rgb(0,0,0)" stroke="rgb(0,0,0)" stroke-width="1" opacity="0.996078431372549" d="M 958.5 6 L 962 6.5 L 958.5 7 L 958.5 6 Z " /><path fill="rgb(0,0,0)" stroke="rgb(0,0,0)" stroke-width="1" opacity="0.996078431372549" d="M 109.5 7 L 112 7.5 L 109.5 8 L 109.5 7 Z " /><path fill="rgb(0,0,0)" stroke="rgb(0,0,0)" stroke-width="1" opacity="0.996078431372549" d="M 964.5 7 L 967 7.5 L 964.5 8 L 964.5 7 Z " /><path fill="rgb(0,0,0)" stroke="rgb(0,0,0)" stroke-width="1" opacity="0.996078431372549" d="M 104.5 8 L 107 8.5 L 104.5 9 L 104.5 8 Z " /><path fill="rgb(0,0,0)" stroke="rgb(0,0,0)" stroke-width="1" opacity="0.996078431372549" d="M 969.5 8 L 972 8.5 L 969.5 9 L 969.5 8 Z " /><path fill="rgb(0,0,0)" stroke="rgb(0,0,0)" stroke-width="1" opacity="0.996078431372549" d="M 69.5 22 L 68.5 24 L 69.5 22 Z " /><path fill="rgb(0,0,0)" stroke="rgb(0,0,0)" stroke-width="1" opacity="0.996078431372549" d="M 1006.5 22 L 1007.5 24 L 1006.5 22 Z " /><path fill="rgb(0,0,0)" stroke="rgb(0,0,0)" stroke-width="1" opacity="0.996078431372549" d="M 64.5 25 L 63.5 27 L 64.5 25 Z " /><path fill="rgb(0,0,0)" stroke="rgb(0,0,0)" stroke-width="1" opacity="0.996078431372549" d="M 1011.5 25 L 1012.5 27 L 1011.5 25 Z " /><path fill="rgb(0,0,0)" stroke="rgb(0,0,0)" stroke-width="1" opacity="0.996078431372549" d="M 61.5 27 L 60.5 29 L 61.5 27 Z " /><path fill="rgb(0,0,0)" stroke="rgb(0,0,0)" stroke-width="1" opacity="0.996078431372549" d="M 1014.5 27 L 1015.5 29 L 1014.5 27 Z " /><path fill="rgb(0,0,0)" stroke="rgb(0,0,0)" stroke-width="1" opacity="0.996078431372549" d="M 57.5 30 L 56.5 32 L 57.5 30 Z " /><path fill="rgb(0,0,0)" stroke="rgb(0,0,0)" stroke-width="1" opacity="0.996078431372549" d="M 1018.5 30 L 1019.5 32 L 1018.5 30 Z " /><path fill="rgb(0,0,0)" stroke="rgb(0,0,0)" stroke-width="1" opacity="0.996078431372549" d="M 54.5 32 L 51.5 36 L 54.5 32 Z " /><path fill="rgb(0,0,0)" stroke="rgb(0,0,0)" stroke-width="1" opacity="0.996078431372549" d="M 1021.5 32 L 1024.5 36 L 1021.5 32 Z " /><path fill="rgb(0,0,0)" stroke="rgb(0,0,0)" stroke-width="1" opacity="0.996078431372549" d="M 48.5 37 L 37.5 49 L 48.5 37 Z " /><path fill="rgb(0,0,0)" stroke="rgb(0,0,0)" stroke-width="1" opacity="0.996078431372549" d="M 1027.5 37 L 1038.5 49 L 1027.5 37 Z " /><path fill="rgb(0,0,0)" stroke="rgb(0,0,0)" stroke-width="1" opacity="0.996078431372549" d="M 34.5 52 L 32.5 55 L 34.5 52 Z " /><path fill="rgb(0,0,0)" stroke="rgb(0,0,0)" stroke-width="1" opacity="0.996078431372549" d="M 1041.5 52 L 1043.5 55 L 1041.5 52 Z " /><path fill="rgb(0,0,0)" stroke="rgb(0,0,0)" stroke-width="1" opacity="0.996078431372549" d="M 30.5 57 L 29.5 59 L 30.5 57 Z " /><path fill="rgb(0,0,0)" stroke="rgb(0,0,0)" stroke-width="1" opacity="0.996078431372549" d="M 1045.5 57 L 1046.5 59 L 1045.5 57 Z " /><path fill="rgb(0,0,0)" stroke="rgb(0,0,0)" stroke-width="1" opacity="0.996078431372549" d="M 27.5 61 L 26.5 63 L 27.5 61 Z " /><path fill="rgb(0,0,0)" stroke="rgb(0,0,0)" stroke-width="1" opacity="0.996078431372549" d="M 1048.5 61 L 1049.5 63 L 1048.5 61 Z " /><path fill="rgb(0,0,0)" stroke="rgb(0,0,0)" stroke-width="1" opacity="0.996078431372549" d="M 25.5 64 L 24.5 66 L 25.5 64 Z " /><path fill="rgb(0,0,0)" stroke="rgb(0,0,0)" stroke-width="1" opacity="0.996078431372549" d="M 1050.5 64 L 1051.5 66 L 1050.5 64 Z " /><path fill="rgb(0,0,0)" stroke="rgb(0,0,0)" stroke-width="1" opacity="0.996078431372549" d="M 22.5 69 L 21.5 71 L 22.5 69 Z " /><path fill="rgb(0,0,0)" stroke="rgb(0,0,0)" stroke-width="1" opacity="0.996078431372549" d="M 1053.5 69 L 1054.5 71 L 1053.5 69 Z " /><path fill="rgb(0,0,0)" stroke="rgb(0,0,0)" stroke-width="1" opacity="0.996078431372549" d="M 7.5 105 L 8 107.5 L 7 107.5 L 7.5 105 Z " /><path fill="rgb(0,0,0)" stroke="rgb(0,0,0)" stroke-width="1" opacity="0.996078431372549" d="M 1068.5 105 L 1069 107.5 L 1068 107.5 L 1068.5 105 Z " /><path fill="rgb(0,0,0)" stroke="rgb(0,0,0)" stroke-width="1" opacity="0.996078431372549" d="M 6.5 110 L 7 112.5 L 6 112.5 L 6.5 110 Z " /><path fill="rgb(0,0,0)" stroke="rgb(0,0,0)" stroke-width="1" opacity="0.996078431372549" d="M 1069.5 110 L 1070 112.5 L 1069 112.5 L 1069.5 110 Z " /><path fill="rgb(0,0,0)" stroke="rgb(0,0,0)" stroke-width="1" opacity="0.996078431372549" d="M 5.5 115 L 6 118.5 L 5 118.5 L 5.5 115 Z " /><path fill="rgb(0,0,0)" stroke="rgb(0,0,0)" stroke-width="1" opacity="0.996078431372549" d="M 1070.5 115 L 1071 118.5 L 1070 118.5 L 1070.5 115 Z " /><path fill="rgb(0,0,0)" stroke="rgb(0,0,0)" stroke-width="1" opacity="0.996078431372549" d="M 4.5 122 L 5 131.5 L 4 131.5 L 4.5 122 Z " /><path fill="rgb(0,0,0)" stroke="rgb(0,0,0)" stroke-width="1" opacity="0.996078431372549" d="M 1071.5 122 L 1072 131.5 L 1071 131.5 L 1071.5 122 Z " /><path fill="rgb(0,0,0)" stroke="rgb(0,0,0)" stroke-width="1" opacity="0.996078431372549" d="M 4.5 946 L 5 955.5 L 4 955.5 L 4.5 946 Z " /><path fill="rgb(0,0,0)" stroke="rgb(0,0,0)" stroke-width="1" opacity="0.996078431372549" d="M 1071.5 946 L 1072 955.5 L 1071 955.5 L 1071.5 946 Z " /><path fill="rgb(0,0,0)" stroke="rgb(0,0,0)" stroke-width="1" opacity="0.996078431372549" d="M 5.5 959 L 6 962.5 L 5 962.5 L 5.5 959 Z " /><path fill="rgb(0,0,0)" stroke="rgb(0,0,0)" stroke-width="1" opacity="0.996078431372549" d="M 1070.5 959 L 1071 962.5 L 1070 962.5 L 1070.5 959 Z " /><path fill="rgb(0,0,0)" stroke="rgb(0,0,0)" stroke-width="1" opacity="0.996078431372549" d="M 6.5 965 L 7 967.5 L 6 967.5 L 6.5 965 Z " /><path fill="rgb(0,0,0)" stroke="rgb(0,0,0)" stroke-width="1" opacity="0.996078431372549" d="M 1069.5 965 L 1070 967.5 L 1069 967.5 L 1069.5 965 Z " /><path fill="rgb(0,0,0)" stroke="rgb(0,0,0)" stroke-width="1" opacity="0.996078431372549" d="M 7.5 970 L 8 972.5 L 7 972.5 L 7.5 970 Z " /><path fill="rgb(0,0,0)" stroke="rgb(0,0,0)" stroke-width="1" opacity="0.996078431372549" d="M 1068.5 970 L 1069 972.5 L 1068 972.5 L 1068.5 970 Z " /><path fill="rgb(0,0,0)" stroke="rgb(0,0,0)" stroke-width="1" opacity="0.996078431372549" d="M 21.5 1007 L 22.5 1009 L 21.5 1007 Z " /><path fill="rgb(0,0,0)" stroke="rgb(0,0,0)" stroke-width="1" opacity="0.996078431372549" d="M 1054.5 1007 L 1053.5 1009 L 1054.5 1007 Z " /><path fill="rgb(0,0,0)" stroke="rgb(0,0,0)" stroke-width="1" opacity="0.996078431372549" d="M 24.5 1012 L 25.5 1014 L 24.5 1012 Z " /><path fill="rgb(0,0,0)" stroke="rgb(0,0,0)" stroke-width="1" opacity="0.996078431372549" d="M 1051.5 1012 L 1050.5 1014 L 1051.5 1012 Z " /><path fill="rgb(0,0,0)" stroke="rgb(0,0,0)" stroke-width="1" opacity="0.996078431372549" d="M 26.5 1015 L 27.5 1017 L 26.5 1015 Z " /><path fill="rgb(0,0,0)" stroke="rgb(0,0,0)" stroke-width="1" opacity="0.996078431372549" d="M 1049.5 1015 L 1048.5 1017 L 1049.5 1015 Z " /><path fill="rgb(0,0,0)" stroke="rgb(0,0,0)" stroke-width="1" opacity="0.996078431372549" d="M 29.5 1019 L 30.5 1021 L 29.5 1019 Z " /><path fill="rgb(0,0,0)" stroke="rgb(0,0,0)" stroke-width="1" opacity="0.996078431372549" d="M 1046.5 1019 L 1045.5 1021 L 1046.5 1019 Z " /><path fill="rgb(0,0,0)" stroke="rgb(0,0,0)" stroke-width="1" opacity="0.996078431372549" d="M 32.5 1023 L 34.5 1026 L 32.5 1023 Z " /><path fill="rgb(0,0,0)" stroke="rgb(0,0,0)" stroke-width="1" opacity="0.996078431372549" d="M 1043.5 1023 L 1041.5 1026 L 1043.5 1023 Z " /><path fill="rgb(0,0,0)" stroke="rgb(0,0,0)" stroke-width="1" opacity="0.996078431372549" d="M 37.5 1029 L 48.5 1041 L 37.5 1029 Z " /><path fill="rgb(0,0,0)" stroke="rgb(0,0,0)" stroke-width="1" opacity="0.996078431372549" d="M 1038.5 1029 L 1027.5 1041 L 1038.5 1029 Z " /><path fill="rgb(0,0,0)" stroke="rgb(0,0,0)" stroke-width="1" opacity="0.996078431372549" d="M 51.5 1042 L 54.5 1046 L 51.5 1042 Z " /><path fill="rgb(0,0,0)" stroke="rgb(0,0,0)" stroke-width="1" opacity="0.996078431372549" d="M 1024.5 1042 L 1021.5 1046 L 1024.5 1042 Z " /><path fill="rgb(0,0,0)" stroke="rgb(0,0,0)" stroke-width="1" opacity="0.996078431372549" d="M 56.5 1046 L 57.5 1048 L 56.5 1046 Z " /><path fill="rgb(0,0,0)" stroke="rgb(0,0,0)" stroke-width="1" opacity="0.996078431372549" d="M 1019.5 1046 L 1018.5 1048 L 1019.5 1046 Z " /><path fill="rgb(0,0,0)" stroke="rgb(0,0,0)" stroke-width="1" opacity="0.996078431372549" d="M 60.5 1049 L 61.5 1051 L 60.5 1049 Z " /><path fill="rgb(0,0,0)" stroke="rgb(0,0,0)" stroke-width="1" opacity="0.996078431372549" d="M 1015.5 1049 L 1014.5 1051 L 1015.5 1049 Z " /><path fill="rgb(0,0,0)" stroke="rgb(0,0,0)" stroke-width="1" opacity="0.996078431372549" d="M 63.5 1051 L 64.5 1053 L 63.5 1051 Z " /><path fill="rgb(0,0,0)" stroke="rgb(0,0,0)" stroke-width="1" opacity="0.996078431372549" d="M 1012.5 1051 L 1011.5 1053 L 1012.5 1051 Z " /><path fill="rgb(0,0,0)" stroke="rgb(0,0,0)" stroke-width="1" opacity="0.996078431372549" d="M 68.5 1054 L 69.5 1056 L 68.5 1054 Z " /><path fill="rgb(0,0,0)" stroke="rgb(0,0,0)" stroke-width="1" opacity="0.996078431372549" d="M 1007.5 1054 L 1006.5 1056 L 1007.5 1054 Z " /><path fill="rgb(0,0,0)" stroke="rgb(0,0,0)" stroke-width="1" opacity="0.996078431372549" d="M 104.5 1069 L 107 1069.5 L 104.5 1070 L 104.5 1069 Z " /><path fill="rgb(0,0,0)" stroke="rgb(0,0,0)" stroke-width="1" opacity="0.996078431372549" d="M 969.5 1069 L 972 1069.5 L 969.5 1070 L 969.5 1069 Z " /><path fill="rgb(0,0,0)" stroke="rgb(0,0,0)" stroke-width="1" opacity="0.996078431372549" d="M 109.5 1070 L 112 1070.5 L 109.5 1071 L 109.5 1070 Z " /><path fill="rgb(0,0,0)" stroke="rgb(0,0,0)" stroke-width="1" opacity="0.996078431372549" d="M 964.5 1070 L 967 1070.5 L 964.5 1071 L 964.5 1070 Z " /><path fill="rgb(0,0,0)" stroke="rgb(0,0,0)" stroke-width="1" opacity="0.996078431372549" d="M 114.5 1071 L 118 1071.5 L 114.5 1072 L 114.5 1071 Z " /><path fill="rgb(0,0,0)" stroke="rgb(0,0,0)" stroke-width="1" opacity="0.996078431372549" d="M 958.5 1071 L 962 1071.5 L 958.5 1072 L 958.5 1071 Z " /><path fill="rgb(0,0,0)" stroke="rgb(0,0,0)" stroke-width="1" opacity="0.996078431372549" d="M 121.5 1072 L 131 1072.5 L 121.5 1073 L 121.5 1072 Z " /><path fill="rgb(0,0,0)" stroke="rgb(0,0,0)" stroke-width="1" opacity="0.996078431372549" d="M 945.5 1072 L 955 1072.5 L 945.5 1073 L 945.5 1072 Z " /><path fill="rgb(0,0,0)" stroke="rgb(0,0,0)" stroke-width="1" opacity="1" d="M 131.5 5 L 944.5 5 L 945.5 6 L 957.5 6 L 973.5 9 L 991.5 15 Q 1021.4 28.1 1041 51.5 Q 1055.3 68.2 1064 90.5 L 1070 113.5 L 1071 131.5 L 1072 132.5 L 1072 945.5 L 1071 946.5 L 1071 958.5 L 1068 974.5 L 1062 992.5 Q 1048.9 1022.4 1025.5 1042 Q 1008.8 1056.3 986.5 1065 L 963.5 1071 L 945.5 1072 L 944.5 1073 L 131.5 1073 L 130.5 1072 L 118.5 1072 L 102.5 1069 L 84.5 1063 Q 54.6 1049.9 35 1026.5 Q 20.7 1009.8 12 987.5 L 6 964.5 L 5 946.5 L 4 945.5 L 4 132.5 L 5 131.5 L 5 119.5 L 8 103.5 L 14 85.5 Q 27.1 55.6 50.5 36 Q 67.2 21.7 89.5 13 L 112.5 7 L 130.5 6 L 131.5 5 Z M 124 10 L 102 14 L 85 20 Q 64 29 50 43 Q 30 60 19 86 L 13 103 L 9 125 L 9 954 L 13 976 L 19 993 Q 28 1012 42 1028 Q 59 1047 85 1058 L 102 1064 L 124 1068 L 953 1068 L 975 1064 L 992 1058 Q 1012 1049 1027 1035 Q 1046 1018 1057 993 L 1063 976 L 1067 954 L 1067 125 L 1063 103 L 1057 86 Q 1048 66 1034 51 Q 1017 31 992 20 L 975 14 L 953 10 L 124 10 Z " /><path fill="rgb(0,0,0)" stroke="rgb(0,0,0)" stroke-width="1" opacity="1" d="M 565 186 L 666.5 186 Q 667.6 186.1 667 191.5 L 673 219.5 Q 679.2 240.3 689 257.5 Q 704.2 284.8 726.5 305 Q 748.7 325.8 778.5 339 L 803.5 348 L 827.5 353 L 834.5 353 L 841 355.5 L 840 356.5 L 840 469.5 Q 842.3 470.8 839.5 472 L 804.5 472 Q 802.7 469.3 796.5 471 L 772.5 466 L 747.5 457 Q 707.8 439.2 681 408.5 L 665.5 388 L 665 693.5 L 664 694.5 L 663 710.5 L 655 744.5 L 641 777.5 Q 621.5 814 591.5 840 Q 557.7 870.2 508.5 885 L 491.5 889 L 486.5 889 L 479.5 891 L 471.5 891 L 470.5 892 L 429.5 892 L 392.5 885 L 366.5 876 Q 323.8 857.2 294 825.5 Q 263.7 793.8 247 748.5 L 240 723.5 L 237 706.5 L 237 698.5 L 236 697.5 L 236 658.5 L 237 657.5 L 238 642.5 L 244 616.5 Q 250.7 594.2 261 575.5 Q 279.9 540.9 308.5 516 Q 335.7 491.7 372.5 477 L 390.5 471 L 417.5 465 L 434.5 464 L 435.5 463 L 460.5 463 L 464 464 L 464 568.5 Q 463.8 569.8 457.5 569 L 456.5 568 L 440.5 568 L 419.5 572 L 394.5 583 Q 377.3 593.3 365 608.5 Q 352.9 622.9 346 642.5 L 341 664.5 L 341 690.5 L 342 691.5 L 343 702.5 L 348 718.5 L 356 734.5 Q 365.4 749.6 378.5 761 Q 395.9 776.6 421.5 784 L 436.5 787 L 464.5 787 L 483.5 783 L 505.5 774 Q 523.5 764 537 749.5 Q 548.4 736.9 556 720.5 L 561 706.5 L 564 692.5 L 564 642.5 L 565 641.5 L 565 186 Z " /></svg>